<svg xmlns="http://www.w3.org/2000/svg" viewBox="0 0 120 120" width="120" height="120">
  <defs>
    <radialGradient id="bg" cx="0.5" cy="0.4" r="0.7">
      <stop offset="0" stop-color="#8fc1ea"/><stop offset="0.6" stop-color="#6CACE4"/>
      <stop offset="1" stop-color="#3A78B8"/>
    </radialGradient>
    <path id="ptop" d="M12.6,60.0 A47.4,47.4 0 0 1 107.4,60.0"/>
    <path id="pbot" d="M106.9,61.2 A47.4,47.4 0 0 1 13.1,61.2"/>
  </defs>
  <circle cx="60.0" cy="60.0" r="57.0" fill="url(#bg)" stroke="#F4B824" stroke-width="3.6"/>
  <circle cx="60.0" cy="60.0" r="51.6" fill="none" stroke="#fff" stroke-width="0.7" opacity="0.6"/>
  <g>
    <path d="M43.6,44.7 C47.9,44.1 50.5,47.3 50.0,51.0 C49.4,54.2 52.1,55.8 51.0,58.9 C50.2,62.1 52.1,64.2 50.0,66.8
             C48.4,69.0 44.7,68.4 43.6,65.8 C42.6,63.7 44.2,61.6 41.5,60.0 C38.9,58.4 38.9,54.2 41.0,52.1
             C39.4,49.9 40.5,46.2 43.6,44.7 Z" fill="#fff" stroke="#0C2D52" stroke-width="1.44" stroke-linejoin="round"/>
    <path d="M67.9,44.1 C76.9,43.1 83.8,46.8 83.2,52.1 C82.7,56.3 78.5,56.8 80.6,60.0 C82.4,62.6 80.1,65.3 76.4,64.7
             C73.2,64.2 73.7,61.6 70.6,61.6 C68.4,63.1 68.4,66.8 71.1,69.0 C68.4,71.6 63.2,70.5 62.6,67.4
             C62.1,64.2 65.3,63.1 63.7,60.5 C60.5,59.4 58.9,51.5 63.2,47.8 C64.5,45.7 66.1,44.7 67.9,44.1 Z" fill="#fff" stroke="#0C2D52" stroke-width="1.44" stroke-linejoin="round"/>
  </g>
  <text font-family="Inter, Arial, sans-serif" font-weight="800" font-size="9.8" fill="#0C2D52" letter-spacing="1">
    <textPath href="#ptop" startOffset="50%" text-anchor="middle">CORRALÓN 2 DE ABRIL</textPath>
  </text>
  <text font-family="Inter, Arial, sans-serif" font-weight="700" font-size="8.5" fill="#fff" letter-spacing="1.5">
    <textPath href="#pbot" startOffset="50%" text-anchor="middle">POR SIEMPRE ARGENTINAS</textPath>
  </text>
</svg>
